PathFileType	4	(X/Y/Z)	Trial_1_0-99.trc
DataRate	CameraRate	NumFrames	NumMarkers	Units	OrigDataRate	OrigDataStartFrame	OrigNumFrames
60	60	8	22	m	60	24	99
Frame#	Time	Hip			RHip			RKnee			RAnkle			RBigToe			RSmallToe			RHeel			LHip			LKnee			LAnkle			LBigToe			LSmallToe			LHeel			Neck			Head			Nose			RShoulder			RElbow			RWrist			LShoulder			LElbow			LWrist		
		X1	Y1	Z1	X2	Y2	Z2	X3	Y3	Z3	X4	Y4	Z4	X5	Y5	Z5	X6	Y6	Z6	X7	Y7	Z7	X8	Y8	Z8	X9	Y9	Z9	X10	Y10	Z10	X11	Y11	Z11	X12	Y12	Z12	X13	Y13	Z13	X14	Y14	Z14	X15	Y15	Z15	X16	Y16	Z16	X17	Y17	Z17	X18	Y18	Z18	X19	Y19	Z19	X20	Y20	Z20	X21	Y21	Z21	X22	Y22	Z22
24	0.4	-0.0707841552385403	0.9152608265717486	-1.2212261146339487	-0.1567303468644883	0.9459506796912874	-1.2144770405713716	-0.35197598239511846	0.5855076702861802	-1.0904844468180608	-0.2686861445439437	0.2438797478322254	-1.3187270022524926	-0.34327162544868	0.14378901516470002	-1.1621496486932839	-0.36999691100270105	0.16475924401006567	-1.2387690935629787	-0.24006167782344193	0.20878300962809904	-1.367981655542919	0.01864581624315944	0.8811838582470248	-1.1760820812265778	-0.06052695745179327	0.5027727218107472	-1.018179893933299	-0.01860041182783165	0.1552982495861034	-1.1489815061642112	-0.034830057431973996	0.08544178968919248	-0.9824113891178883	0.006127598629334947	0.0745250958683537	-1.0145758507484048	-0.00571661534917406	0.10507637063850975	-1.191577606506643	0.17235015430870215	1.411122239915581	-1.1529262822306057	0.25081431446872304	1.6335460588857031	-0.9841995778760193	0.17918588230485075	1.4778034453501772	-0.9775942229373912	-0.0074599603777511314	1.433157589585669	-1.2567869059340477	-0.2599872403092193	1.3700335344747592	-1.3320102984831994	-0.367309877980625	1.437497248884846	-1.1037192648466911	0.3044225733147417	1.2693672055272287	-1.169033573984753	0.34096467074191505	0.9818449730081191	-1.1598226096436186	0.3339305580126247	0.7304985340412249	-1.1001996258899798
25	0.4166666666666667	-0.07202280869158871	0.917628744937071	-1.2063381339919117	-0.15781039913257242	0.9522327495883623	-1.2072223751166338	-0.3659745709621101	0.5991200554449999	-1.0759610047905788	-0.30790793936833005	0.2399822857206706	-1.2890142002123395	-0.38542837655788553	0.14682744353176788	-1.1339989086454696	-0.41009524472355724	0.16389803333407868	-1.2145958185777468	-0.28086884567064335	0.2000496921135409	-1.3337092427678507	0.013504785527192847	0.8844859830548918	-1.166517893604223	-0.05919514355627711	0.5019151632945809	-1.0151992948123398	-0.01629319923047845	0.15152418146492636	-1.1530831308391498	-0.07290847123321176	0.07051601593604205	-0.9833255709065163	0.0050773119125485265	0.07438041299297428	-1.0169205110200896	-0.0031231201976234775	0.10096949654105317	-1.196152780096065	0.1826162782123544	1.4088228876205027	-1.1502257173135306	0.2597086924335438	1.628418281888562	-0.9857296550078347	0.18314829540816013	1.4892793491356426	-0.9708178607531459	0.0014349052570125102	1.4313516146631653	-1.2503157836385657	-0.25233367264405104	1.3780752046096152	-1.3235153354370053	-0.35892841501960826	1.4519460745920874	-1.087673724857237	0.30938936041945964	1.2646802114560856	-1.163124093970557	0.3390603403987992	0.9765590095700644	-1.1488907741730494	0.3353610413106538	0.7252458411184105	-1.0874645341317517
26	0.43333333333333335	-0.07633317385382174	0.9167423828651263	-1.1984317473936663	-0.16129740179054824	0.9508915889593005	-1.1974254619496814	-0.38319807614134066	0.6041846309304381	-1.068546998472883	-0.3458290750438598	0.2409674957950531	-1.2679779748808298	-0.41905177252666426	0.15233944164642954	-1.1081613171755536	-0.4383883840782351	0.1654794646734916	-1.1880146671877754	-0.3194915725972398	0.19670265349245805	-1.3109340161727734	0.012065602157138878	0.8802865736420665	-1.158751960843943	-0.057640757693590984	0.49906034907895813	-1.0111578394836493	-0.014580274817380648	0.15175339215346828	-1.1526052065713663	-0.046341716246790635	0.08537483655517428	-0.9769909046390819	0.004043707390231258	0.07501450566305114	-1.0136418362591695	-0.001469463745565281	0.10532563349368276	-1.2010902626854545	0.18828446034142837	1.3990062604562303	-1.141311193413436	0.27138642479383224	1.6159466719293993	-0.9719684131710788	0.18577779930665	1.4785517772145191	-0.9504180739858799	0.008676023569497456	1.4310555625446497	-1.2469340048461262	-0.24554646288580403	1.3854073156325053	-1.3201928131981513	-0.35050864303992046	1.4613030337504072	-1.0865331453951454	0.31212729847664406	1.2536005471918867	-1.1561080459625181	0.3426634516027336	0.9707748010648862	-1.142683077325642	0.3318963174393499	0.723074003633672	-1.0765838451089562
27	0.45	-0.08099898111765985	0.9147334955040725	-1.1893028724707932	-0.16233632084285154	0.9491637001306628	-1.1875246128424313	-0.3993465545333165	0.6116917516094594	-1.0515242222571848	-0.38075987203935624	0.23854142765330413	-1.2384424603742423	-0.4597254123099105	0.1519641798963402	-1.0806843005333429	-0.480924289824836	0.16463980886029236	-1.1590434098548026	-0.35634319873435666	0.19495918008349783	-1.2848283811499734	0.00617495130208879	0.8778078771910953	-1.1554272060968758	-0.05759680168127645	0.4978060023545358	-1.0031182305769932	-0.012806141220136248	0.1472719178057691	-1.1536947410386784	-0.04366473381031332	0.08515551304681483	-0.9817512073315159	0.01057259811363281	0.07421170160981039	-1.0207968597696906	-0.001787216721267445	0.1042161888189628	-1.2023209360939757	0.19211500836700604	1.3977628835073128	-1.1316565893993495	0.2825266094406533	1.6112331020544026	-0.9587781841268406	0.21246401020244415	1.4708700027561472	-0.9251391661083506	0.006076620914994994	1.4290516186668638	-1.2343612394121206	-0.2458003956477365	1.3896861717238205	-1.310716764040563	-0.3448114635904057	1.4779413492700053	-1.0805620346048697	0.3168975390555739	1.2454145582840084	-1.151015080543724	0.34201306020441424	0.9618080840041077	-1.1352750776969105	0.33066629712986423	0.7153520102900617	-1.063336122527738
28	0.4666666666666667	-0.08337330549058757	0.9144122594149193	-1.1779258928310516	-0.16895053863753123	0.9501752179824368	-1.1766737663800508	-0.41401376089837977	0.6126286520147673	-1.0448480765747217	-0.4178173025682348	0.24616561719339564	-1.223057020528829	-0.5050184969118332	0.156466788254081	-1.0672423782560883	-0.5240041958812247	0.17219336063224566	-1.145630292772793	-0.3947932438670509	0.20018355689406012	-1.2627220961858399	0.005266028737518992	0.8732674722403818	-1.143384454685043	-0.05778572906886609	0.4937974720718894	-0.9979610057964946	-0.01677736045885187	0.14849008640604439	-1.1552039033385484	-0.039432849125953906	0.08425708447778206	-0.9856473489068751	0.014916752834325198	0.0754643927144419	-1.0261337131994277	-0.006633859927484899	0.1021796667808452	-1.2048510011806088	0.19726345415123403	1.3894144100237242	-1.128072204072907	0.29152398796269996	1.6057468358901317	-0.960941459571405	0.2236601265834778	1.450322826682667	-0.9515482821961895	0.0102497832976661	1.4253927578859424	-1.222947323390583	-0.24508431649986973	1.3966063535308686	-1.304537084275898	-0.33222879334446365	1.4909405994040936	-1.0751204576902043	0.3222845801330895	1.2372746730975868	-1.146688262256858	0.3426782933494966	0.9571268239582515	-1.1271128271410886	0.3288049239565848	0.7078453356962658	-1.0534074344375857
29	0.48333333333333334	-0.08625369938885938	0.9162419550569835	-1.1684431407836222	-0.16749158466674408	0.9543717760013457	-1.1676963417836907	-0.4252906525122884	0.6229201483036317	-1.03839873351223	-0.4538010854096787	0.2557855735346328	-1.2057392270016873	-0.5336068841632432	0.17003836090628013	-1.0546251024711029	-0.5564661383411678	0.1823096011160855	-1.1248863197475953	-0.4320839178924874	0.2088207841391254	-1.2454338551727204	-0.0004441032080411342	0.8732944520889203	-1.1332465891208705	-0.06100700608163973	0.49175759466172264	-0.9882307418427773	-0.015493370295480353	0.14590960823463525	-1.152175406567669	-0.03459875596852063	0.07874142669761065	-0.9920504317718449	0.01675844295349731	0.07199399673372471	-1.0286855489402527	-0.007013741879816914	0.10079807457529849	-1.2020991861462822	0.203324441242013	1.3830023701755767	-1.1194571239940316	0.2973268893695796	1.5855012377069426	-0.9748651765447213	0.22527140646752347	1.4442349326337416	-0.9390408482741431	0.023853314193474005	1.422766454041964	-1.2191534207422383	-0.2317353886242106	1.3959254314564367	-1.2941617287349163	-0.3216898857658081	1.503760569771465	-1.0709210457917235	0.3248165974012271	1.2306091364095881	-1.1392416238473628	0.34489284983999563	0.9518876137246318	-1.1232897750309756	0.3233792209231613	0.7010878401599614	-1.0432030645736625
30	0.5	-0.09034124451573976	0.9167990111009771	-1.1601412934922661	-0.1756862897078107	0.9569471465194292	-1.1526667518396143	-0.43126590370350926	0.6382298603271814	-1.0219030145435664	-0.4907161901855393	0.2603268395760981	-1.1857668737442784	-0.5676790822615138	0.18436562399395132	-1.0257063503307964	-0.5901301137681743	0.19832702545547626	-1.0996234260333317	-0.47300150551351106	0.2143928873655578	-1.226015121248205	-0.005273129367906903	0.868362640943053	-1.1251596022449724	-0.06458312337343994	0.49104899785404565	-0.9829720677571268	-0.017659210411130118	0.14613017485488902	-1.1496764849771852	-0.02998159978674485	0.07803034318870158	-0.993330448059891	0.021661472986204012	0.07185763387859598	-1.0307305679423222	-0.00845136810535207	0.10395472230477054	-1.1984745554482408	0.20627346888635087	1.3743806789366724	-1.1163737645133451	0.30783273505346803	1.5906698411340432	-0.9440839157730873	0.24436658348546142	1.4149761017572475	-0.966214758352614	0.024736712983953316	1.4210224467751675	-1.2155343145475141	-0.23193204568047823	1.402106679767675	-1.286962699423839	-0.3205904511767594	1.5167221457378859	-1.0641675134211868	0.3284071763877951	1.2220359446565476	-1.1378597002933695	0.3461952916115724	0.943207565009154	-1.1179085651499934	0.3252153411693825	0.6922851223973128	-1.037237524705388
31	0.5166666666666667	-0.09247468928093293	0.9162740717942411	-1.1544061159006431	-0.17497830254697838	0.9584827448028982	-1.1425732086984932	-0.4367677386268198	0.6467327580021479	-1.0153245125699193	-0.5206327231379373	0.26743378206343504	-1.1714224007603238	-0.5905711336375954	0.1955786032865569	-1.0096693691125878	-0.6184267196997829	0.20897821609899275	-1.081893599099478	-0.5096185801141062	0.22320661838571773	-1.2095669651538625	-0.006308765624415327	0.8688043971595593	-1.119129564657441	-0.06903898212847334	0.4867760644222381	-0.9778858490101962	-0.016105252319031885	0.1486505347246064	-1.1462080212235732	-0.03135522766400571	0.08068595603503004	-0.9876843314482285	0.020646072271022005	0.07610074519979246	-1.0255398110787957	-0.007824025277020714	0.10096239059223489	-1.1972237493337086	0.2157068599346789	1.3730882453232618	-1.106509973883224	0.3186607105032413	1.586664256489012	-0.9477838596313276	0.23906666616790076	1.448140997617842	-0.8995258919820137	0.029102528049736023	1.4198004421512687	-1.2011482544751457	-0.22272600232495315	1.4032720556360758	-1.272851093266177	-0.3164438779972571	1.5263867507817916	-1.0632817927648472	0.3303013638768301	1.2185834016236163	-1.1341785287101815	0.3428033636710108	0.9342422118143573	-1.1108620924359784	0.32532127559800983	0.6823706677335267	-1.0255583010257865
